<?xml version="1.0" encoding="UTF-8"?>
<svg id="Layer_1" data-name="Layer 1" xmlns="http://www.w3.org/2000/svg" viewBox="0 0 857.55 140.8">
  <defs>
    <style>
      .cls-1 {
        fill: #231f20;
      }
    </style>
  </defs>
  <path class="cls-1" d="M95.7,140.8l-25.52-61.16h-16.5v61.16H0V0h111.76c12.03,0,20.68,2.2,25.96,6.6,5.87,4.99,8.8,13.2,8.8,24.64v27.06c0,14.23-7.19,21.34-21.56,21.34l29.48,61.16h-58.74ZM92.84,31.24c0-3.08-.55-5.17-1.65-6.27s-3.19-1.65-6.27-1.65h-31.24v33h31.24c5.28,0,7.92-2.64,7.92-7.92v-17.16Z"/>
  <path class="cls-1" d="M297.88,132.88c-4.55,5.28-12.1,7.92-22.66,7.92h-83.6c-10.56,0-18.11-2.64-22.66-7.92-3.96-4.69-5.94-12.03-5.94-22v-43.56c0-9.97,1.98-17.31,5.94-22,4.55-5.28,12.1-7.92,22.66-7.92h83.6c10.56,0,18.11,2.64,22.66,7.92,3.96,4.69,5.94,12.03,5.94,22v43.56c0,9.97-1.98,17.31-5.94,22ZM251.9,65.34c0-5.13-2.42-7.7-7.26-7.7h-22.44c-4.84,0-7.26,2.57-7.26,7.7v47.52c0,5.13,2.42,7.7,7.26,7.7h22.44c4.84,0,7.26-2.57,7.26-7.7v-47.52Z"/>
  <path class="cls-1" d="M355.08,140.8c-23.17,0-34.76-12.98-34.76-38.94v-62.92c0-25.96,11.59-38.94,34.76-38.94h89.54v23.32h-60.06c-7.04,0-10.56,2.93-10.56,8.8v76.56c0,5.87,3.52,8.8,10.56,8.8h60.06v23.32h-89.54Z"/>
  <path class="cls-1" d="M548.46,140.8v-11.44h-.44c-1.03,4.4-3.01,7.41-5.94,9.02-2.93,1.61-7.48,2.42-13.64,2.42h-39.16c-10.41,0-17.89-2.31-22.44-6.93s-6.82-12.43-6.82-23.43v-9.46c0-10.71,2.2-18.41,6.6-23.1,4.4-4.69,11.73-7.04,22-7.04h57.42v-6.6c0-4.4-2.64-6.6-7.92-6.6h-73.26v-20.24h99c11.29,0,19.65,2.64,25.08,7.92,6.01,5.87,9.02,15.55,9.02,29.04v66.44h-49.5ZM546.04,91.08h-22.88c-3.96,0-6.67.51-8.14,1.54-2.05,1.17-3.08,3.52-3.08,7.04v12.54c0,5.57,3.52,8.36,10.56,8.36h14.08c3.96,0,6.53-.84,7.7-2.53,1.17-1.69,1.76-5.02,1.76-10.01v-16.94Z"/>
  <path class="cls-1" d="M689.69,66.22c-8.65,0-14.52,1.14-17.6,3.41-3.08,2.27-4.62,6.49-4.62,12.65v58.52h-51.92V37.4h47.96v16.72h.44c2.49-6.45,5.68-10.85,9.57-13.2s9.57-3.52,17.05-3.52h25.3v28.82h-26.18Z"/>
  <path class="cls-1" d="M849.52,133.21c-5.35,5.06-12.58,7.59-21.67,7.59h-98.78v-18.92h73.7c4.25,0,6.38-1.69,6.38-5.06v-3.3c0-3.23-2.13-4.84-6.38-4.84h-47.08c-17.75,0-26.62-8.58-26.62-25.74v-19.8c0-7.77,3.04-14.01,9.13-18.7,6.09-4.69,13.6-7.04,22.55-7.04h96.8v18.92h-73.26c-4.55,0-6.82,1.39-6.82,4.18v3.74c0,2.64,2.27,3.96,6.82,3.96h45.76c18.33,0,27.5,8.65,27.5,25.96v19.36c0,8.07-2.68,14.63-8.03,19.69Z"/>
</svg>