<?xml version="1.0" encoding="UTF-8"?>
<svg id="Layer_1" data-name="Layer 1" xmlns="http://www.w3.org/2000/svg" viewBox="0 0 737.72 736.64">
  <defs>
    <style>
      .cls-1 {
        fill: #fff;
      }
    </style>
  </defs>
  <path class="cls-1" d="M215.54,32.55l.13,671.87S-5.14,608.93,.09,368.57,215.54,32.55,215.54,32.55Z"/>
  <path class="cls-1" d="M320.39,2.34l.26,267.19s45.62-196.81,313.62-155.28c-8.51-12.09-53.7-63.15-142.04-93.53S320.39,2.34,320.39,2.34Z"/>
  <path class="cls-1" d="M702.09,524.21s84.26-150.64-6.38-325.02c-22.47-5.87-215.49-80.68-271.91,88.34-2.3,9.7-34.47,111.66,18.64,196.77,4.09,6.47,70.53,124.26,248.17,45.28,5.11-2.04,11.49-5.36,11.49-5.36Z"/>
  <path class="cls-1" d="M320.56,733.83s192,31.49,318.3-116.26c-10.81,0-125.7,35.06-216.6-24.94s-101.7-145.11-101.7-145.11v286.3Z"/>
</svg>